<?xml version="1.0" encoding="utf-8"?>
<!-- Svg Vector Icons : http://www.onlinewebfonts.com/icon -->
<!DOCTYPE svg PUBLIC "-//W3C//DTD SVG 1.1//EN" "http://www.w3.org/Graphics/SVG/1.1/DTD/svg11.dtd">
<svg version="1.1" xmlns="http://www.w3.org/2000/svg" xmlns:xlink="http://www.w3.org/1999/xlink" x="0px" y="0px" viewBox="0 0 1000 1000" enable-background="new 0 0 1000 1000" xml:space="preserve">
<metadata> Svg Vector Icons : http://www.onlinewebfonts.com/icon </metadata>
<g><g transform="translate(0.000000,511.000000) scale(0.100000,-0.100000)"><path d="M4752.8,5004c-391.5-61.3-721.7-223.4-996.6-488.4c-375.7-363.8-561.6-794.9-561.6-1307.1c0-379.7,118.6-757.3,330.2-1048c251.1-348,622.9-601.1,1050-713.8c197.7-51.4,636.7-51.4,840.4,0c334.2,85,581.4,219.5,818.7,446.9c383.6,365.8,569.5,796.9,569.5,1315c0,508.2-183.9,941.2-551.7,1297.2c-340.1,332.2-721.7,492.4-1202.2,502.3C4918.9,5011.9,4786.4,5009.9,4752.8,5004z M5354,4681.7c537.8-130.5,990.7-581.4,1123.2-1123.2c41.5-176,41.5-524,0-700c-164.1-674.3-785-1162.7-1477.1-1162.7c-569.5,0-1101.4,328.2-1352.5,834.5c-118.6,243.2-158.2,407.3-158.2,678.2c0,270.9,39.5,435,158.2,678.2c148.3,296.6,444.9,581.4,749.4,713.8C4671.8,4723.2,5049.4,4754.8,5354,4681.7z"/><path d="M4861.6,4309.9v-114.7l-128.5-55.4c-381.6-166.1-506.2-613-243.2-883.9c108.8-112.7,253.1-172,516.1-215.5c255.1-41.5,310.4-59.3,367.8-120.6c53.4-57.3,55.4-183.9,3.9-267c-91-148.3-381.6-203.7-583.3-110.7c-53.4,23.7-134.5,75.1-179.9,112.7l-83.1,67.2l-102.8-104.8l-102.8-104.8l71.2-63.3c106.8-92.9,201.7-148.3,342.1-199.7l122.6-45.5v-104.8v-106.8H5000h138.4v104.8v102.8l114.7,33.6c373.7,110.7,563.6,472.6,409.3,781.1c-89,178-237.3,257.1-583.3,310.4c-114.7,19.8-245.2,51.4-292.6,73.2c-178,87-189.8,280.8-25.7,419.2c152.3,126.6,371.8,122.6,575.4-11.9c49.4-31.6,53.4-31.6,154.2,57.3c57.4,49.4,102.8,98.9,102.8,108.8c0,33.6-213.6,158.2-330.2,195.8l-114.7,35.6l-5.9,110.7l-5.9,110.7H5000h-138.4V4309.9z"/><path d="M7596.3,1958.8l-183.9-7.9v-148.3v-150.3l203.7,13.8c132.5,9.9,195.8,7.9,181.9-5.9c-21.7-19.8-2879.1-1659-2920.6-1674.8c-17.8-5.9-156.2,217.5-401.4,644.6c-205.6,359.9-381.6,662.4-387.6,672.3c-11.9,19.8-2809.9-1585.8-2821.7-1619.5c-11.9-35.6,122.6-243.2,150.3-231.4c15.8,5.9,585.3,332.2,1265.5,725.7C3364.7,568.7,3936.2,895,3952,898.9c21.8,3.9,142.4-187.9,407.3-650.6c253.1-437,389.5-658.5,409.3-656.5c17.8,2,737.6,409.3,1601.7,905.6c864.1,496.3,1577.9,901.7,1585.9,901.7c7.9,0-27.7-77.1-79.1-170.1c-51.4-92.9-89-172-85-174c51.4-41.5,237.3-130.5,251.1-122.6c13.8,9.9,516.1,939.3,551.7,1024.3C8600.8,1972.7,7993.8,1972.7,7596.3,1958.8z"/><path d="M7202.8,628c-49.4-25.7-96.9-69.2-122.6-116.7c-39.5-71.2-43.5-104.8-43.5-413.3V-240l-630.8-5.9c-607-5.9-634.7-7.9-688.1-47.5c-116.7-89-134.5-144.3-140.4-496.3l-7.9-322.3H5000h-569.5l-7.9,322.3c-7.9,373.7-25.7,429.1-174,504.2c-85,41.5-104.8,43.5-702,43.5c-597.2,0-616.9-2-702-43.5c-148.3-75.1-166.1-130.5-174-504.2l-7.9-320.3l-618.9-5.9c-591.2-5.9-622.9-7.9-674.3-47.5c-29.7-21.8-73.2-65.3-94.9-94.9c-41.5-53.4-41.5-73.2-47.5-1645.2l-4-1589.8H926.6H630v-148.3V-4790h4370h4370v148.3v148.3h-296.6h-296.6l-4,2479.6c-5.9,2469.8-5.9,2481.6-47.4,2535c-21.8,29.7-65.3,73.2-94.9,94.9c-51.4,39.6-83,41.5-700,47.5C7313.5,667.6,7279.9,665.6,7202.8,628z M8480.2-2061.2v-2432.2h-573.4h-573.4v2432.2V371h573.4h573.4V-2061.2z M4126-2521.9l4-1971.5h-583.3h-583.3V-2516v1977.4l579.4-4l577.4-5.9L4126-2521.9z M7032.8-2521.9l4-1971.5h-583.3H5870V-2516v1977.4l579.4-4l577.4-5.9L7032.8-2521.9z M2666.7-2951v-1542.4h-573.4h-573.4V-2951v1542.4h573.4h573.4V-2951z M5573.4-2951v-1542.4H5000h-573.4V-2951v1542.4H5000h573.4V-2951z"/></g></g>
</svg>